<svg width="163" height="107" viewBox="0 0 163 107" fill="none" xmlns="http://www.w3.org/2000/svg">
<path d="M121.357 52.1139L122.684 52.9208L122.698 52.9292V46.6299L121.357 52.1139Z" fill="white"/>
<path d="M122.699 46.6292L122.698 46.6322L121.46 51.6924L121.357 52.114L118.787 50.5524L119.555 49.7818L122.698 46.6299V46.6292H122.699Z" fill="white"/>
<path d="M122.698 57.1514V58.5245L121.357 57.9674L122.698 57.1514Z" fill="white"/>
<path d="M122.698 46.6284L118.787 50.5524L117.23 47.975L122.698 46.6284Z" fill="white"/>
<path d="M122.698 46.6284L117.23 47.975L118.506 44.8867L122.698 46.6284Z" fill="white"/>
<path d="M122.698 55.0404V52.9292L122.684 52.9209L121.357 52.114L120.641 55.0404H120.64L121.357 57.9675L122.698 57.1515V55.0404Z" fill="white"/>
<path d="M118.506 44.8867L117.23 47.9751L114.313 43.145L118.506 44.8867Z" fill="white"/>
<path d="M118.787 50.5522L121.357 52.1138L119.714 52.7958L118.787 50.5522Z" fill="white"/>
<path d="M121.356 52.114L120.64 55.0404L119.714 52.796L121.356 52.114Z" fill="white"/>
<path d="M120.64 55.0405H118.787V53.1814L119.713 52.7969L120.64 55.0405Z" fill="white"/>
<path d="M119.713 52.7966L118.787 53.1811V50.5522L119.713 52.7966Z" fill="white"/>
<path d="M117.23 47.9749L118.787 50.5522L116.55 49.6227L117.23 47.9749Z" fill="white"/>
<path d="M120.64 55.0403L121.356 57.9666L119.714 57.2846L120.64 55.0403Z" fill="white"/>
<path d="M120.64 55.0403L119.714 57.2846L118.787 56.8986V55.0403H120.64Z" fill="white"/>
<path d="M114.313 43.145L117.23 47.9751L114.314 48.6934L114.313 43.145Z" fill="white"/>
<path d="M117.23 47.9749L116.55 49.6227L114.313 48.6932H114.314L117.23 47.9749Z" fill="white"/>
<path d="M121.357 57.9675L118.845 59.4935L118.792 59.5253L118.787 59.5283L122.698 63.4523V63.4516V58.5246L121.357 57.9675Z" fill="white"/>
<path d="M121.357 57.9667L118.787 59.5282L119.714 57.2847L121.357 57.9667Z" fill="white"/>
<path d="M114.313 43.145L114.314 48.6934H114.313V43.145Z" fill="white"/>
<path d="M114.313 43.145V48.6934L111.395 47.9751L114.313 43.145Z" fill="white"/>
<path d="M122.698 63.4523L122.696 63.4516L117.23 62.1057L118.787 59.5283L122.698 63.4523Z" fill="white"/>
<path d="M122.696 63.4516H117.786L117.23 62.1057L122.696 63.4516Z" fill="white"/>
<path d="M119.714 57.2847L118.787 59.5283V56.8987L119.714 57.2847Z" fill="white"/>
<path d="M114.313 48.6932L112.075 49.6227L111.395 47.9749L114.313 48.6932Z" fill="white"/>
<path d="M118.787 59.5283L117.23 62.1057L116.55 60.4579L118.787 59.5283Z" fill="white"/>
<path d="M117.786 63.4516H116.417L117.23 62.1057L117.786 63.4516Z" fill="white"/>
<path d="M117.23 62.1056L114.313 61.3865L116.55 60.4578L117.23 62.1056Z" fill="white"/>
<path d="M110.12 44.8867L105.927 46.6292L111.395 47.9751L114.313 43.145L110.12 44.8867Z" fill="white"/>
<path d="M111.395 47.975L105.927 46.6292L109.839 50.5524L112.075 49.6229L111.395 47.975Z" fill="white"/>
<path d="M117.23 62.1056L116.418 63.4514H114.313V61.3865L117.23 62.1056Z" fill="white"/>
<path d="M105.927 46.6292L107.269 52.114L108.912 52.796L109.839 50.5524L105.927 46.6292Z" fill="white"/>
<path d="M114.313 61.3872V63.4514H112.208L111.395 62.1055L114.313 61.3872Z" fill="white"/>
<path d="M114.313 61.3873L111.395 62.1056L112.075 60.4578L114.313 61.3873Z" fill="white"/>
<path d="M108.912 52.796L107.985 55.0404L107.269 52.114L108.912 52.796Z" fill="white"/>
<path d="M112.075 60.4579L111.395 62.1057L109.839 59.5283L112.075 60.4579Z" fill="white"/>
<path d="M105.927 46.6292L107.269 52.114L104.19 50.8347L105.927 46.6292Z" fill="white"/>
<path d="M112.208 63.4516H110.839L111.395 62.1057L112.208 63.4516Z" fill="white"/>
<path d="M107.269 52.114L107.985 55.0404H102.454L107.269 52.114Z" fill="white"/>
<path d="M109.839 59.5283L111.395 62.1057L105.927 63.4516L109.839 59.5283Z" fill="white"/>
<path d="M111.395 62.1057L110.839 63.4516H105.927L111.395 62.1057Z" fill="white"/>
<path d="M107.269 52.114L102.454 55.0403L104.19 50.8347L107.269 52.114Z" fill="white"/>
<path d="M108.912 57.2847L109.839 59.5282L107.269 57.9667L108.912 57.2847Z" fill="white"/>
<path d="M107.985 55.0403L108.912 57.2846L107.269 57.9666L107.985 55.0403Z" fill="white"/>
<path d="M107.985 55.0403L107.269 57.9666L102.454 55.0403H107.985Z" fill="white"/>
<path d="M107.269 57.9666L109.839 59.5281L105.927 63.4514L107.269 57.9666Z" fill="white"/>
<path d="M102.454 55.0403L104.19 59.2459L105.927 63.4514L107.269 57.9666L102.454 55.0403Z" fill="white"/>
<path d="M122.699 63.4514V63.4525L122.696 63.4514H122.699Z" fill="white"/>
<path d="M140.631 56.1501L133.268 63.5364L122.703 52.9346V46.6293L124.947 48.7638L128.086 51.9127L133.268 57.1175L137.43 52.9429C138.532 51.8348 139.151 50.3334 139.151 48.768C139.151 47.2026 138.532 45.7012 137.43 44.5931L136.408 43.5667L133.268 40.414L131.079 38.2188L134.28 35.0071L140.629 41.3745C144.691 45.4507 144.691 52.0777 140.631 56.1501ZM38.2649 42.5607H29.7376C23.9956 42.5607 19.3237 47.2469 19.3237 53.0065V63.4523H23.8515V53.0065C23.8533 51.4412 24.474 49.9405 25.5775 48.8336C26.681 47.7268 28.1771 47.1041 29.7376 47.1023H38.2649V42.5607ZM54.5649 31.1021L50.0372 34.8497V53.0073C50.0372 54.5732 49.417 56.0749 48.3131 57.1821C47.2093 58.2894 45.7121 58.9114 44.151 58.9114C42.5899 58.9114 41.0928 58.2894 39.9889 57.1821C38.8851 56.0749 38.2649 54.5732 38.2649 53.0073V48.2385H33.7372V53.0073C33.7372 58.7676 38.4091 63.4531 44.151 63.4531C49.893 63.4531 54.5649 58.7676 54.5649 53.0073V31.1021ZM60.451 58.9107C59.4094 58.9082 58.387 58.6294 57.4875 58.1026C56.588 57.5757 55.8435 56.8196 55.3294 55.9109C54.9074 57.5424 54.1347 59.0615 53.0655 60.3617C54.7802 62.0987 57.0488 63.1762 59.4749 63.4062C61.9011 63.6361 64.3307 63.0038 66.3394 61.6198C66.8778 61.2481 67.3805 60.8269 67.8411 60.3617C66.772 59.062 65.9993 57.5434 65.5772 55.9124C65.0638 56.8225 64.3187 57.5796 63.4181 58.1064C62.5175 58.6332 61.4936 58.9107 60.451 58.9107V58.9107ZM101.228 55.0404L103.14 50.411L103.103 50.2747C103.094 50.2384 103.084 50.199 103.073 50.1649C103.055 50.1006 103.036 50.037 103.017 49.9734C103.004 49.9288 102.99 49.8849 102.976 49.841C102.97 49.8213 102.964 49.8016 102.957 49.7819C102.931 49.7009 102.903 49.6199 102.876 49.5397C102.857 49.489 102.839 49.4383 102.82 49.3883C102.794 49.3164 102.767 49.246 102.74 49.1756C102.713 49.1052 102.693 49.0583 102.669 49C102.66 48.9818 102.653 48.9637 102.645 48.9448C102.624 48.8933 102.602 48.8426 102.58 48.7934C102.458 48.5204 102.327 48.2534 102.184 47.9925C102.164 47.9554 102.144 47.9168 102.122 47.8828C102.11 47.8593 102.097 47.8366 102.083 47.8131C102.051 47.7563 102.018 47.7003 101.984 47.6443C101.959 47.6019 101.934 47.5595 101.909 47.5179L101.891 47.4891C101.872 47.4581 101.853 47.4286 101.833 47.3983C101.772 47.3004 101.708 47.2035 101.642 47.1076C101.609 47.06 101.576 47.0123 101.543 46.9653C101.421 46.7943 101.295 46.6262 101.166 46.4627C101.14 46.4309 101.114 46.3991 101.09 46.3681C100.984 46.2387 100.875 46.1123 100.763 45.9896C100.735 45.9594 100.708 45.9291 100.68 45.8996C100.565 45.7749 100.447 45.6536 100.325 45.5355C100.298 45.5082 100.271 45.4825 100.244 45.4598L100.148 45.3682C100.117 45.3394 100.086 45.3114 100.056 45.2834C99.9325 45.1706 99.8065 45.0616 99.6782 44.9549L99.6027 44.8943C99.4654 44.7828 99.325 44.6746 99.1816 44.5696L99.0956 44.5075L99.0526 44.4765C99.002 44.4409 98.9515 44.4053 98.9017 44.3705L98.8602 44.3425L98.7711 44.2835C98.7009 44.2366 98.6308 44.1911 98.5591 44.1465C98.4874 44.1018 98.4255 44.064 98.3584 44.0239C98.2912 43.9837 98.2074 43.9338 98.1274 43.8906L98.0173 43.8293L97.9063 43.7695L97.7939 43.7112C97.726 43.6757 97.6565 43.6416 97.5871 43.6075C97.5049 43.5674 97.4226 43.5318 97.3388 43.491L97.2234 43.4395C97.1479 43.4054 97.0679 43.3721 96.9902 43.3403C96.951 43.3237 96.9147 43.3078 96.8717 43.2926L96.7533 43.2465L96.634 43.2018C96.5646 43.1761 96.4944 43.1511 96.4242 43.1261L96.3639 43.1057L96.2725 43.0754C96.1918 43.0489 96.1103 43.0232 96.028 42.9997C95.9458 42.9762 95.8635 42.952 95.7813 42.9293L95.6568 42.896L95.5315 42.865L95.4062 42.8347C95.3225 42.815 95.238 42.7968 95.1534 42.7794L95.0259 42.7537C94.8984 42.7295 94.7701 42.7075 94.641 42.6871L94.5044 42.6674C94.4207 42.6553 94.3362 42.6447 94.2516 42.6349L94.1203 42.6205C94.0366 42.6121 93.9521 42.6046 93.8675 42.5978H93.8374C93.7559 42.5917 93.6744 42.5872 93.5921 42.5826L93.4593 42.5766C93.3702 42.5766 93.2812 42.5713 93.1914 42.5698H82.6371V52.9808C82.6371 52.9899 82.6371 52.9982 82.6371 53.0073C82.6371 54.5732 82.017 56.0749 80.9131 57.1821C79.8093 58.2894 78.3121 58.9114 76.751 58.9114C75.1899 58.9114 73.6928 58.2894 72.5889 57.1821C71.4851 56.0749 70.8649 54.5732 70.8649 53.0073C70.8649 52.9982 70.8649 52.9899 70.8649 52.9808C70.8609 51.2982 70.4517 49.6414 69.6721 48.1516C68.8925 46.6617 67.7657 45.3827 66.3875 44.4236C65.0093 43.4644 63.4204 42.8534 61.7562 42.6425C60.0919 42.4316 58.4015 42.6271 56.8288 43.2124V48.3596C57.6978 47.6791 58.7398 47.2571 59.8362 47.1416C60.9325 47.0261 62.0392 47.2217 63.0302 47.7063C64.0211 48.1908 64.8565 48.9447 65.4412 49.8822C66.0258 50.8197 66.3363 51.903 66.3371 53.0088C66.3355 54.4892 66.6497 55.9528 67.2586 57.3014V57.3014C67.2691 57.3241 67.2804 57.3468 67.291 57.3703C67.3174 57.4263 67.3431 57.4823 67.3665 57.5383C67.3861 57.5792 67.4065 57.6201 67.4268 57.661L67.491 57.7874C67.528 57.8593 67.5664 57.9304 67.6049 58.0016C67.6223 58.0341 67.6396 58.0667 67.6578 58.0992C67.6857 58.1484 67.7136 58.1984 67.7423 58.2506L67.78 58.3142C67.8411 58.4172 67.903 58.5193 67.9671 58.617L67.98 58.6367C68.0172 58.6952 68.0549 58.7527 68.0932 58.8092L68.0985 58.8176C68.2562 59.053 68.4222 59.2823 68.5973 59.5034C69.2432 60.3183 70.0061 61.0326 70.8612 61.6228C72.5933 62.8168 74.6456 63.456 76.7473 63.456C78.849 63.456 80.9013 62.8168 82.6334 61.6228V61.6228V63.4561C82.6316 65.0215 82.0109 66.5222 80.9074 67.629C79.8039 68.7359 78.3078 69.3585 76.7473 69.3603V73.902C82.4892 73.902 87.1612 69.2157 87.1612 61.1043V47.1031H93.0473C93.963 47.1042 94.8659 47.3192 95.6843 47.7313C96.5027 48.1433 97.2142 48.741 97.7622 49.4769C97.8188 49.5526 97.8731 49.6283 97.9267 49.7077C97.9531 49.7471 97.9788 49.7834 98.0022 49.8273C98.0791 49.9469 98.1516 50.0693 98.2195 50.1945C98.2421 50.2369 98.264 50.2792 98.2859 50.3216C98.3297 50.4056 98.3712 50.4919 98.4104 50.579C98.4889 50.7531 98.5591 50.9315 98.621 51.1142C98.8271 51.7236 98.9319 52.3629 98.9311 53.0065V63.4523H103.459V60.4564L101.228 55.0404Z" fill="white"/>
</svg>
